<svg version="1.1" id="Layer_1" xmlns="http://www.w3.org/2000/svg" xmlns:xlink="http://www.w3.org/1999/xlink" x="0px" y="0px"
	 width="100%" viewBox="0 0 558 239" enable-background="new 0 0 558 239" xml:space="preserve">
<path fill="#2883A1" opacity="1.000000" stroke="none" 
	d="
M326.000000,1.000000 
	C326.750000,1.000000 327.500000,1.000000 328.500580,1.421111 
	C330.252625,2.244239 331.742615,2.933761 333.257751,2.994331 
	C337.790161,3.175524 342.370941,2.744059 346.862946,3.216640 
	C356.758331,4.257683 366.637207,5.532755 376.474884,7.027691 
	C393.007172,9.539937 409.499847,12.311728 426.013306,14.948723 
	C445.842896,18.115271 464.483307,24.680424 482.245239,34.025784 
	C495.075287,40.776241 505.248383,50.336002 509.792053,63.972973 
	C516.629578,84.494362 522.124146,105.471420 527.916870,126.330528 
	C534.240845,149.103134 539.889954,172.068375 546.513916,194.750885 
	C552.161743,214.090958 541.774963,231.590897 525.154602,237.949478 
	C524.299927,238.276443 523.712097,239.300522 523.000000,240.000015 
	C521.611084,240.000000 520.222229,240.000000 518.271179,239.792786 
	C517.469543,239.352402 517.229980,239.119247 516.606079,238.739441 
	C514.075867,238.397507 511.930145,238.031601 509.784332,238.031219 
	C356.662201,238.004044 203.540070,238.001968 50.417942,238.041153 
	C47.954266,238.041794 45.490723,238.576782 42.811829,239.007294 
	C42.397697,239.434784 42.198853,239.717392 42.000004,240.000000 
	C40.285641,240.000000 38.571285,240.000000 36.717773,239.699112 
	C31.655121,236.330307 25.888958,234.076309 21.979609,230.028839 
	C13.236324,220.976624 9.138044,209.839401 12.518639,197.155548 
	C18.109116,176.180283 24.124903,155.318787 29.848606,134.378479 
	C35.287148,114.481468 40.866035,94.615883 45.850079,74.603706 
	C49.984253,58.003948 58.530857,44.695152 73.312874,36.052208 
	C87.805466,27.578491 103.292458,21.189688 119.786682,17.725790 
	C137.837524,13.934992 155.855072,9.634906 174.108612,7.256553 
	C193.221664,4.766211 212.597839,4.295315 232.336609,2.950169 
	C241.093002,2.969612 249.375214,3.113955 257.648193,2.900164 
	C259.780396,2.845062 261.883514,1.663888 264.000000,1.000002 
	C283.354218,1.000000 302.708466,1.000000 322.326233,1.353228 
	C324.091461,3.232681 325.492889,4.274912 326.000000,1.000000 
M422.484863,95.906929 
	C435.746826,92.065872 449.267700,88.920662 462.172577,84.119812 
	C469.775574,81.291389 477.054413,76.608330 483.279114,71.341339 
	C489.231049,66.305168 489.226196,58.746868 483.388733,53.767231 
	C477.311554,48.583160 470.201752,44.178669 462.868103,40.983379 
	C444.592590,33.020710 425.070160,29.224987 405.494049,26.002403 
	C360.500061,18.595568 315.149414,16.536108 269.612274,16.920952 
	C222.372925,17.320183 175.442917,20.560188 129.257874,31.085714 
	C113.332527,34.715088 97.618759,39.089981 83.474571,47.783321 
	C69.057800,56.644203 68.877686,68.038017 83.175934,77.077255 
	C83.598053,77.344109 84.009071,77.655006 84.468918,77.831825 
	C96.543053,82.474808 108.622955,87.102768 121.288231,92.225510 
	C125.386391,93.564903 129.408325,95.242599 133.595703,96.185974 
	C153.226974,100.608711 172.756454,105.777145 192.604721,108.862099 
	C213.453049,112.102493 234.589859,113.729729 255.659409,115.243340 
	C282.794006,117.192673 309.916290,116.194527 337.755463,112.786301 
	C346.832001,111.430107 355.908539,110.073921 365.822845,108.860535 
	C377.874451,106.595482 389.985352,104.599350 401.954529,101.960518 
	C408.704803,100.472298 415.221649,97.925583 422.484863,95.906929 
z"/>
<path fill="#000000" opacity="1.000000" stroke="none" 
	d="
M523.468689,240.000015 
	C523.712097,239.300522 524.299927,238.276443 525.154602,237.949478 
	C541.774963,231.590897 552.161743,214.090958 546.513916,194.750885 
	C539.889954,172.068375 534.240845,149.103134 527.916870,126.330528 
	C522.124146,105.471420 516.629578,84.494362 509.792053,63.972973 
	C505.248383,50.336002 495.075287,40.776241 482.245239,34.025784 
	C464.483307,24.680424 445.842896,18.115271 426.013306,14.948723 
	C409.499847,12.311728 393.007172,9.539937 376.474884,7.027691 
	C366.637207,5.532755 356.758331,4.257683 346.862946,3.216640 
	C342.370941,2.744059 337.790161,3.175524 333.257751,2.994331 
	C331.742615,2.933761 330.252625,2.244239 328.875580,1.421111 
	C405.600220,1.000000 482.200439,1.000000 558.900330,1.000000 
	C558.900330,80.666595 558.900330,160.333282 558.903687,239.999969 
	C547.250427,240.000000 535.593872,240.000000 523.468689,240.000015 
z"/>
<path fill="#000000" opacity="1.000000" stroke="none" 
	d="
M231.859009,2.941744 
	C212.597839,4.295315 193.221664,4.766211 174.108612,7.256553 
	C155.855072,9.634906 137.837524,13.934992 119.786682,17.725790 
	C103.292458,21.189688 87.805466,27.578491 73.312874,36.052208 
	C58.530857,44.695152 49.984253,58.003948 45.850079,74.603706 
	C40.866035,94.615883 35.287148,114.481468 29.848606,134.378479 
	C24.124903,155.318787 18.109116,176.180283 12.518639,197.155548 
	C9.138044,209.839401 13.236324,220.976624 21.979609,230.028839 
	C25.888958,234.076309 31.655121,236.330307 36.289307,239.699112 
	C24.343443,240.000000 12.686887,240.000000 1.015165,240.000000 
	C1.015165,160.412491 1.015165,80.824966 1.015165,1.000000 
	C77.687401,1.000000 154.375046,1.000000 231.859528,1.252352 
	C232.390594,1.983718 232.124802,2.462732 231.859009,2.941744 
z"/>
<path fill="#88C4D6" opacity="1.000000" stroke="none" 
	d="
M516.990479,238.886078 
	C517.229980,239.119247 517.469543,239.352402 517.854492,239.792786 
	C359.642578,240.000000 201.285187,240.000000 42.463890,240.000000 
	C42.198853,239.717392 42.397697,239.434784 43.278145,239.053040 
	C180.658691,238.968735 317.357635,238.988541 454.056580,238.993027 
	C475.034546,238.993713 496.012512,238.923508 516.990479,238.886078 
z"/>
<path fill="#2A7A94" opacity="1.000000" stroke="none" 
	d="
M232.336609,2.950169 
	C232.124802,2.462732 232.390594,1.983718 232.328186,1.252352 
	C242.354233,1.000000 252.708450,1.000000 263.531342,1.000002 
	C261.883514,1.663888 259.780396,2.845062 257.648193,2.900164 
	C249.375214,3.113955 241.093002,2.969612 232.336609,2.950169 
z"/>
<path fill="#000000" opacity="1.000000" stroke="none" 
	d="
M325.625000,1.000000 
	C325.492889,4.274912 324.091461,3.232681 322.794891,1.353228 
	C323.750000,1.000000 324.500000,1.000000 325.625000,1.000000 
z"/>
<path fill="#8D6040" opacity="1.000000" stroke="none" 
	d="
M336.917694,112.661171 
	C309.916290,116.194527 282.794006,117.192673 255.659409,115.243340 
	C234.589859,113.729729 213.453049,112.102493 192.604721,108.862099 
	C172.756454,105.777145 153.226974,100.608711 133.595703,96.185974 
	C129.408325,95.242599 125.386391,93.564903 121.045364,91.574547 
	C120.364670,85.106026 122.777557,80.439819 127.151772,76.950081 
	C130.632782,74.172935 134.286331,71.251976 138.357712,69.656616 
	C144.985153,67.059692 152.054031,65.609940 158.852173,63.414597 
	C160.712265,62.813908 163.436386,61.559628 163.778900,60.129765 
	C165.982620,50.930023 172.743622,46.288166 180.520782,42.855434 
	C201.152176,33.749031 222.677902,32.757454 244.701981,36.106586 
	C248.291504,36.652431 252.498154,36.523346 255.780121,35.163231 
	C278.325073,25.820114 301.395874,24.800594 324.926208,30.056736 
	C334.774628,32.256657 344.261871,35.592480 351.368073,43.230061 
	C353.915405,45.967838 356.690674,46.489838 360.136261,46.918686 
	C370.987823,48.269321 382.073364,49.105381 392.486267,52.138729 
	C399.522247,54.188362 406.142212,58.926121 411.911377,63.711491 
	C417.726074,68.534706 418.085968,75.230469 414.301819,81.894875 
	C412.484589,85.095268 412.470795,87.134804 415.619568,89.432556 
	C417.992828,91.164421 419.790039,93.685753 421.843658,95.855682 
	C415.221649,97.925583 408.704803,100.472298 401.954529,101.960518 
	C389.985352,104.599350 377.874451,106.595482 365.516663,108.447586 
	C367.040253,103.695000 368.029602,99.687103 363.762268,95.822792 
	C353.658234,86.673080 342.437378,85.250488 330.018402,90.049660 
	C325.279236,91.881042 323.111603,96.045769 324.793182,100.812828 
	C326.877655,106.722069 330.053253,111.602280 336.917694,112.661171 
M212.664932,84.111916 
	C208.125504,86.638802 203.471527,88.989937 199.129684,91.819969 
	C198.084656,92.501129 197.549347,94.817917 197.684326,96.300102 
	C198.138046,101.281982 204.949936,108.690628 209.967102,109.691063 
	C214.696579,110.634140 219.495621,111.247704 224.278946,111.896568 
	C230.929703,112.798737 235.913223,109.472969 240.010818,104.886581 
	C241.182007,103.575691 241.823715,100.460091 241.079453,99.005257 
	C238.203735,93.383957 234.999237,87.792931 227.751617,86.679955 
	C222.984863,85.947968 218.254349,84.979935 212.664932,84.111916 
M277.139801,76.669083 
	C282.368896,77.598595 287.585388,78.607841 292.830688,79.434631 
	C297.825592,80.221962 306.628632,75.834366 308.936005,71.381462 
	C309.505707,70.281929 310.000793,68.594566 309.560486,67.612022 
	C307.130280,62.189312 304.983307,56.115406 298.364319,54.585011 
	C292.577179,53.246941 286.600494,52.466877 280.666565,52.095486 
	C274.186981,51.689953 269.980835,56.039364 266.308533,60.655342 
	C265.573853,61.578831 265.344116,63.946232 265.993408,64.752945 
	C269.257416,68.808197 272.890289,72.566566 277.139801,76.669083 
z"/>
<path fill="#3F444D" opacity="1.000000" stroke="none" 
	d="
M422.164246,95.881302 
	C419.790039,93.685753 417.992828,91.164421 415.619568,89.432556 
	C412.470795,87.134804 412.484589,85.095268 414.301819,81.894875 
	C418.085968,75.230469 417.726074,68.534706 411.911377,63.711491 
	C406.142212,58.926121 399.522247,54.188362 392.486267,52.138729 
	C382.073364,49.105381 370.987823,48.269321 360.136261,46.918686 
	C356.690674,46.489838 353.915405,45.967838 351.368073,43.230061 
	C344.261871,35.592480 334.774628,32.256657 324.926208,30.056736 
	C301.395874,24.800594 278.325073,25.820114 255.780121,35.163231 
	C252.498154,36.523346 248.291504,36.652431 244.701981,36.106586 
	C222.677902,32.757454 201.152176,33.749031 180.520782,42.855434 
	C172.743622,46.288166 165.982620,50.930023 163.778900,60.129765 
	C163.436386,61.559628 160.712265,62.813908 158.852173,63.414597 
	C152.054031,65.609940 144.985153,67.059692 138.357712,69.656616 
	C134.286331,71.251976 130.632782,74.172935 127.151772,76.950081 
	C122.777557,80.439819 120.364670,85.106026 120.752182,91.328445 
	C108.622955,87.102768 96.543053,82.474808 84.468918,77.831825 
	C84.009071,77.655006 83.598053,77.344109 83.175934,77.077255 
	C68.877686,68.038017 69.057800,56.644203 83.474571,47.783321 
	C97.618759,39.089981 113.332527,34.715088 129.257874,31.085714 
	C175.442917,20.560188 222.372925,17.320183 269.612274,16.920952 
	C315.149414,16.536108 360.500061,18.595568 405.494049,26.002403 
	C425.070160,29.224987 444.592590,33.020710 462.868103,40.983379 
	C470.201752,44.178669 477.311554,48.583160 483.388733,53.767231 
	C489.226196,58.746868 489.231049,66.305168 483.279114,71.341339 
	C477.054413,76.608330 469.775574,81.291389 462.172577,84.119812 
	C449.267700,88.920662 435.746826,92.065872 422.164246,95.881302 
z"/>
<path fill="#A16F4B" opacity="1.000000" stroke="none" 
	d="
M337.336578,112.723740 
	C330.053253,111.602280 326.877655,106.722069 324.793182,100.812828 
	C323.111603,96.045769 325.279236,91.881042 330.018402,90.049660 
	C342.437378,85.250488 353.658234,86.673080 363.762268,95.822792 
	C368.029602,99.687103 367.040253,103.695000 365.097778,108.376190 
	C355.908539,110.073921 346.832001,111.430107 337.336578,112.723740 
z"/>
<path fill="#237491" opacity="1.000000" stroke="none" 
	d="
M516.606079,238.739441 
	C496.012512,238.923508 475.034546,238.993713 454.056580,238.993027 
	C317.357635,238.988541 180.658691,238.968735 43.493439,238.908173 
	C45.490723,238.576782 47.954266,238.041794 50.417942,238.041153 
	C203.540070,238.001968 356.662201,238.004044 509.784332,238.031219 
	C511.930145,238.031601 514.075867,238.397507 516.606079,238.739441 
z"/>
<path fill="#A26F4A" opacity="1.000000" stroke="none" 
	d="
M213.086273,84.114761 
	C218.254349,84.979935 222.984863,85.947968 227.751617,86.679955 
	C234.999237,87.792931 238.203735,93.383957 241.079453,99.005257 
	C241.823715,100.460091 241.182007,103.575691 240.010818,104.886581 
	C235.913223,109.472969 230.929703,112.798737 224.278946,111.896568 
	C219.495621,111.247704 214.696579,110.634140 209.967102,109.691063 
	C204.949936,108.690628 198.138046,101.281982 197.684326,96.300102 
	C197.549347,94.817917 198.084656,92.501129 199.129684,91.819969 
	C203.471527,88.989937 208.125504,86.638802 213.086273,84.114761 
z"/>
<path fill="#A26F4A" opacity="1.000000" stroke="none" 
	d="
M276.766724,76.549141 
	C272.890289,72.566566 269.257416,68.808197 265.993408,64.752945 
	C265.344116,63.946232 265.573853,61.578831 266.308533,60.655342 
	C269.980835,56.039364 274.186981,51.689953 280.666565,52.095486 
	C286.600494,52.466877 292.577179,53.246941 298.364319,54.585011 
	C304.983307,56.115406 307.130280,62.189312 309.560486,67.612022 
	C310.000793,68.594566 309.505707,70.281929 308.936005,71.381462 
	C306.628632,75.834366 297.825592,80.221962 292.830688,79.434631 
	C287.585388,78.607841 282.368896,77.598595 276.766724,76.549141 
z"/>
</svg>